<svg width="30" height="30" viewBox="0 0 800 800" fill="none" xmlns="http://www.w3.org/2000/svg">
<path d="M365.156 14.2046L14.1529 364.92C-4.71763 383.775 -4.71763 414.229 14.1529 433.084L365.156 783.799C384.027 802.654 414.506 802.654 433.377 783.799L580.547 636.749C597.447 619.863 597.447 592.485 580.547 575.599C563.648 558.713 536.247 558.713 519.347 575.599L407.778 687.076C403.082 691.769 395.953 691.769 391.256 687.076L110.955 407.005C106.258 402.312 106.258 395.19 110.955 390.497L391.256 110.426C395.953 105.733 403.082 105.733 407.778 110.426L519.347 221.903C536.247 238.789 563.648 238.789 580.547 221.903C597.447 205.017 597.447 177.639 580.547 160.753L433.393 13.7196C414.445 -4.72736 383.955 -4.57802 365.156 14.2046Z" fill="white"/>
<path d="M614.521 542.982C631.421 559.868 658.821 559.868 675.721 542.982L784.281 434.511C803.152 415.656 803.152 385.202 784.284 366.349L674.777 257.321C657.837 240.455 630.428 240.479 613.518 257.375C596.618 274.261 596.618 301.639 613.518 318.525L687.479 392.425C692.176 397.118 692.176 404.241 687.479 408.934L614.521 481.833C597.621 498.719 597.621 526.096 614.521 542.982Z" fill="white"/>
<path d="M401.022 495.448C453.362 495.448 495.793 453.053 495.793 400.755C495.793 348.458 453.362 306.062 401.022 306.062C348.681 306.062 306.251 348.458 306.251 400.755C306.251 453.053 348.681 495.448 401.022 495.448Z" fill="white"/>
</svg>
