<svg width="30" height="30" viewBox="0 0 74 48" fill="none" xmlns="http://www.w3.org/2000/svg">
<path d="M4.27496 34.518L0.506958 46.818H3.47196L4.15196 44.526H7.82796L8.48996 46.818H11.714L7.94596 34.518H4.27496ZM4.89696 42.052L6.01696 38.227L7.12396 42.052H4.89696ZM18.797 41.207L18.661 41.072L18.933 40.959C19.2824 40.8007 19.5991 40.5786 19.867 40.304C20.127 40.034 20.339 39.704 20.484 39.331C20.629 38.958 20.7 38.537 20.7 38.071C20.7 37.427 20.584 36.871 20.355 36.415C20.1276 35.9591 19.7849 35.5705 19.361 35.288C18.946 35.01 18.441 34.808 17.859 34.69C17.299 34.577 16.671 34.52 15.989 34.52H12.143V46.82H15.093V42.014H15.181C15.4703 42.0044 15.7561 42.0798 16.003 42.231C16.233 42.378 16.407 42.591 16.54 42.886L18.323 46.819H21.755L19.6 42.43C19.338 41.897 19.078 41.497 18.808 41.206L18.797 41.207ZM17.514 38.847C17.429 39.009 17.31 39.143 17.152 39.254C16.9647 39.38 16.7559 39.4705 16.536 39.521C16.2516 39.5881 15.9601 39.6204 15.668 39.617H15.093V37.017H15.741C16.416 37.017 16.918 37.123 17.241 37.332C17.515 37.514 17.648 37.832 17.648 38.272C17.648 38.49 17.608 38.674 17.522 38.836L17.514 38.847ZM30.398 35.98C29.901 35.48 29.275 35.107 28.536 34.88C27.816 34.648 26.969 34.53 26.016 34.53H22.116V46.83H25.512C26.608 46.83 27.566 46.68 28.362 46.386C29.169 46.088 29.842 45.656 30.364 45.1C30.886 44.544 31.264 43.87 31.517 43.088C31.757 42.324 31.877 41.464 31.877 40.533C31.877 39.518 31.757 38.628 31.517 37.887C31.272 37.127 30.897 36.49 30.4 35.991L30.398 35.98ZM27.986 43.455C27.474 44.025 26.731 44.3 25.716 44.3H25.066V37.038H25.871C26.441 37.038 26.917 37.118 27.289 37.278C27.6294 37.416 27.9249 37.6454 28.143 37.941C28.361 38.241 28.519 38.617 28.613 39.058C28.711 39.525 28.763 40.066 28.763 40.666C28.763 41.946 28.503 42.886 27.987 43.466L27.986 43.455ZM38.983 42.343C38.983 42.767 38.943 43.128 38.866 43.417C38.794 43.687 38.686 43.917 38.549 44.071C38.412 44.225 38.254 44.341 38.053 44.411C37.835 44.489 37.555 44.528 37.223 44.528C36.871 44.528 36.58 44.483 36.359 44.394C36.1562 44.3144 35.9767 44.1851 35.837 44.018C35.6897 43.8355 35.5879 43.6206 35.54 43.391C35.4713 43.0754 35.4388 42.753 35.443 42.43V34.517H32.493V42.563C32.493 43.228 32.575 43.838 32.737 44.377C32.907 44.937 33.183 45.42 33.563 45.814C33.943 46.208 34.44 46.512 35.041 46.717C35.625 46.917 36.341 47.02 37.138 47.02C37.86 47.02 38.523 46.918 39.108 46.717C39.705 46.512 40.22 46.202 40.638 45.794C41.056 45.386 41.381 44.872 41.603 44.267C41.821 43.673 41.933 42.967 41.933 42.199V34.517H38.983V42.343ZM43.44 36.992H46.087V44.325H43.44V46.817H51.72V44.325H49.073V36.992H51.72V34.52H43.44V36.994M59.94 41.528L56.643 34.52H53.303V46.82H56.05V39.678L59.365 46.82H62.687V34.52H59.93V41.528M72.226 35.974C71.366 34.879 70.074 34.324 68.389 34.324C67.669 34.324 66.981 34.452 66.346 34.704C65.6982 34.9619 65.119 35.3665 64.654 35.886C64.174 36.416 63.804 37.086 63.534 37.892C63.269 38.688 63.134 39.642 63.134 40.728C63.134 42.735 63.561 44.296 64.404 45.368C65.264 46.466 66.556 47.023 68.241 47.023C68.9402 47.027 69.6338 46.898 70.285 46.643C70.929 46.387 71.498 45.99 71.985 45.461C72.472 44.932 72.835 44.261 73.105 43.455C73.369 42.66 73.505 41.705 73.505 40.619C73.505 38.607 73.078 37.043 72.235 35.973L72.226 35.974ZM70.286 42.374C70.202 42.828 70.07 43.211 69.894 43.512C69.727 43.799 69.521 44.009 69.264 44.154C69.007 44.299 68.689 44.372 68.316 44.372C67.579 44.372 67.066 44.098 66.746 43.532C66.396 42.912 66.216 41.936 66.216 40.628C66.216 40.014 66.26 39.463 66.348 38.99C66.432 38.537 66.565 38.155 66.743 37.854C66.8922 37.5866 67.1104 37.3642 67.375 37.21C67.627 37.066 67.945 36.993 68.317 36.993C69.06 36.993 69.575 37.267 69.892 37.83C70.242 38.45 70.418 39.428 70.418 40.735C70.418 41.351 70.374 41.903 70.286 42.374ZM51.186 29.38C47.343 29.38 44.056 28.084 41.166 25.434C39.38 23.797 37.906 21.792 36.552 19.707C35.197 21.792 33.724 23.807 31.938 25.434C28.831 28.282 25.268 29.566 21.038 29.359C12.992 29.324 6.45796 22.974 6.45796 15.174C6.45796 7.35201 13.028 0.989014 21.106 0.989014C25.526 0.989014 29.246 2.45201 32.481 5.45901C34.035 6.90401 35.346 8.58101 36.541 10.335C37.737 8.58101 39.049 6.90501 40.601 5.45901C43.835 2.45901 47.556 0.989014 51.976 0.989014C60.053 0.989014 66.624 7.35201 66.624 15.174C66.624 22.974 60.089 29.324 52.044 29.359C51.752 29.373 51.462 29.379 51.176 29.379L51.186 29.38ZM39.493 14.973C41.096 17.573 42.653 19.995 44.547 21.731C46.687 23.691 48.941 24.498 51.847 24.344L51.977 24.34C57.293 24.34 61.617 20.223 61.617 15.162C61.617 10.101 57.292 5.98401 51.977 5.98401C48.839 5.98401 46.307 6.97901 44.012 9.11401C42.297 10.709 40.882 12.754 39.482 14.974L39.493 14.973ZM21.113 5.97301C15.797 5.97301 11.473 10.091 11.473 15.151C11.473 20.211 15.798 24.329 21.113 24.329L21.243 24.333C24.158 24.487 26.413 23.681 28.551 21.72C30.446 19.983 32.001 17.563 33.605 14.962C32.207 12.742 30.791 10.698 29.077 9.10201C26.781 6.96601 24.25 5.97201 21.112 5.97201L21.113 5.97301Z" fill="white"/>
</svg>
