<svg width="20" height="20" viewBox="0 0 34 34" fill="none" xmlns="http://www.w3.org/2000/svg">
<path fill-rule="evenodd" clip-rule="evenodd" d="M17 3.66667C9.6362 3.66667 3.66667 9.6362 3.66667 17C3.66667 24.3638 9.6362 30.3333 17 30.3333C24.3638 30.3333 30.3333 24.3638 30.3333 17C30.3333 9.6362 24.3638 3.66667 17 3.66667ZM0.333332 17C0.333332 7.79525 7.79525 0.333332 17 0.333332C26.2047 0.333332 33.6667 7.79525 33.6667 17C33.6667 26.2047 26.2047 33.6667 17 33.6667C7.79525 33.6667 0.333332 26.2047 0.333332 17ZM10.8215 14.1548C11.4724 13.5039 12.5276 13.5039 13.1785 14.1548L17 17.9763L20.8215 14.1548C21.4724 13.5039 22.5276 13.5039 23.1785 14.1548C23.8294 14.8057 23.8294 15.861 23.1785 16.5118L18.1785 21.5118C17.866 21.8244 17.442 22 17 22C16.558 22 16.134 21.8244 15.8215 21.5118L10.8215 16.5118C10.1706 15.861 10.1706 14.8057 10.8215 14.1548Z" fill="white"/>
</svg>
