<svg width="30" height="30" viewBox="0 0 2500 1495" fill="none" xmlns="http://www.w3.org/2000/svg">
<g clip-path="url(#clip0_1_2)">
<path d="M704.19 542.977C704.19 573.739 707.516 598.681 713.336 616.971C719.987 635.262 728.301 655.215 739.94 676.832C744.097 683.483 745.76 690.134 745.76 695.954C745.76 704.268 740.772 712.581 729.963 720.895L677.586 755.814C670.103 760.802 662.621 763.297 655.969 763.297C647.655 763.297 639.342 759.14 631.028 751.657C619.388 739.186 609.411 725.884 601.097 712.581C592.784 698.448 584.47 682.651 575.324 663.529C510.476 740.017 428.999 778.262 330.895 778.262C261.058 778.262 205.354 758.308 164.616 718.401C123.878 678.494 103.093 625.285 103.093 558.774C103.093 488.105 128.035 430.739 178.75 387.507C229.465 344.274 296.807 322.658 382.441 322.658C410.708 322.658 439.807 325.152 470.569 329.309C501.33 333.466 532.923 340.117 566.179 347.6V286.908C566.179 223.722 552.877 179.658 527.103 153.885C500.499 128.112 455.604 115.641 391.586 115.641C362.488 115.641 332.557 118.967 301.796 126.449C271.034 133.932 241.104 143.077 212.005 154.717C198.703 160.536 188.726 163.862 182.907 165.525C177.087 167.187 172.93 168.019 169.604 168.019C157.965 168.019 152.145 159.705 152.145 142.246V101.507C152.145 88.205 153.808 78.2283 157.965 72.4086C162.122 66.5888 169.604 60.7691 181.244 54.9493C210.343 39.9842 245.261 27.5133 285.999 17.5366C326.738 6.72848 369.97 1.74012 415.697 1.74012C514.632 1.74012 586.964 24.1877 633.522 69.083C679.248 113.978 702.527 182.152 702.527 273.606V542.977H704.19ZM366.644 669.349C394.08 669.349 422.348 664.361 452.278 654.384C482.208 644.407 508.813 626.117 531.26 601.175C544.563 585.378 554.539 567.919 559.528 547.966C564.516 528.012 567.842 503.902 567.842 475.634V440.716C543.731 434.896 517.958 429.908 491.353 426.582C464.749 423.257 438.976 421.594 413.203 421.594C357.499 421.594 316.761 432.402 289.325 454.85C261.889 477.297 248.587 508.89 248.587 550.46C248.587 589.535 258.563 618.634 279.348 638.588C299.302 659.372 328.4 669.349 366.644 669.349ZM1034.25 759.14C1019.29 759.14 1009.31 756.645 1002.66 750.826C996.009 745.837 990.19 734.198 985.201 718.401L789.824 75.7341C784.835 59.1063 782.341 48.2982 782.341 42.4784C782.341 29.1761 788.992 21.6936 802.295 21.6936H883.771C899.568 21.6936 910.376 24.1877 916.195 30.0075C922.847 34.9959 927.835 46.6354 932.823 62.4318L1072.5 612.814L1202.19 62.4318C1206.35 45.804 1211.34 34.9959 1217.99 30.0075C1224.64 25.0191 1236.28 21.6936 1251.25 21.6936H1317.76C1333.56 21.6936 1344.36 24.1877 1351.01 30.0075C1357.67 34.9959 1363.49 46.6354 1366.81 62.4318L1498.17 619.465L1642 62.4318C1646.99 45.804 1652.81 34.9959 1658.63 30.0075C1665.28 25.0191 1676.09 21.6936 1691.05 21.6936H1768.37C1781.68 21.6936 1789.16 28.3447 1789.16 42.4784C1789.16 46.6354 1788.33 50.7923 1787.5 55.7807C1786.66 60.7691 1785 67.4202 1781.68 76.5655L1581.31 719.233C1576.32 735.861 1570.5 746.669 1563.85 751.657C1557.2 756.645 1546.39 759.971 1532.26 759.971H1460.76C1444.96 759.971 1434.15 757.477 1427.5 751.657C1420.85 745.837 1415.03 735.029 1411.71 718.401L1282.84 182.152L1154.81 717.57C1150.65 734.198 1145.66 745.006 1139.01 750.826C1132.36 756.645 1120.72 759.14 1105.75 759.14H1034.25ZM2102.59 781.587C2059.36 781.587 2016.13 776.599 1974.56 766.622C1932.99 756.645 1900.57 745.837 1878.95 733.366C1865.65 725.884 1856.5 717.57 1853.18 710.087C1849.85 702.605 1848.19 694.291 1848.19 686.808V644.407C1848.19 626.948 1854.84 618.634 1867.31 618.634C1872.3 618.634 1877.29 619.465 1882.27 621.128C1887.26 622.791 1894.75 626.117 1903.06 629.442C1931.33 641.913 1962.09 651.89 1994.51 658.541C2027.77 665.192 2060.19 668.518 2093.45 668.518C2145.83 668.518 2186.56 659.372 2214.83 641.082C2243.1 622.791 2258.06 596.186 2258.06 562.099C2258.06 538.82 2250.58 519.698 2235.62 503.902C2220.65 488.105 2192.38 473.972 2151.65 460.669L2031.09 423.257C1970.4 404.135 1925.51 375.867 1898.07 338.454C1870.64 301.873 1856.5 261.135 1856.5 217.902C1856.5 182.984 1863.98 152.222 1878.95 125.618C1893.91 99.0132 1913.87 75.7341 1938.81 57.4435C1963.75 38.3214 1992.02 24.1877 2025.27 14.211C2058.53 4.2343 2093.45 0.0773315 2130.03 0.0773315C2148.32 0.0773315 2167.44 0.908725 2185.73 3.40291C2204.86 5.89709 2222.31 9.22266 2239.77 12.5482C2256.4 16.7052 2272.2 20.8622 2287.16 25.8505C2302.13 30.8389 2313.77 35.8272 2322.08 40.8156C2333.72 47.4668 2342.04 54.1179 2347.02 61.6004C2352.01 68.2516 2354.51 77.3969 2354.51 89.0364V128.112C2354.51 145.571 2347.85 154.717 2335.38 154.717C2328.73 154.717 2317.92 151.391 2303.79 144.74C2256.4 123.124 2203.19 112.315 2144.16 112.315C2096.77 112.315 2059.36 119.798 2033.59 135.594C2007.82 151.391 1994.51 175.501 1994.51 209.588C1994.51 232.868 2002.83 252.821 2019.45 268.617C2036.08 284.414 2066.84 300.21 2110.91 314.344L2228.97 351.757C2288.83 370.879 2332.06 397.483 2357.83 431.571C2383.6 465.658 2396.08 504.733 2396.08 547.966C2396.08 583.716 2388.59 616.14 2374.46 644.407C2359.49 672.675 2339.54 697.616 2313.77 717.57C2287.99 738.355 2257.23 753.32 2221.48 764.128C2184.07 775.767 2145 781.587 2102.59 781.587Z" fill="white"/>
<path d="M2259.73 1185.64C1986.2 1387.67 1588.79 1494.92 1247.09 1494.92C768.207 1494.92 336.714 1317.84 10.8081 1023.52C-14.9651 1000.24 8.31389 968.651 39.0754 986.941C391.586 1191.46 826.405 1315.34 1276.19 1315.34C1579.65 1315.34 1913.04 1252.16 2219.82 1122.46C2265.55 1101.67 2304.62 1152.39 2259.73 1185.64Z" fill="#FF9900"/>
<path d="M2373.63 1055.95C2338.71 1011.05 2142.5 1034.33 2053.54 1045.14C2026.94 1048.46 2022.78 1025.19 2046.89 1007.73C2203.19 897.982 2460.09 929.575 2490.02 966.156C2519.95 1003.57 2481.71 1260.47 2335.38 1383.52C2312.94 1402.64 2291.32 1392.66 2301.3 1367.72C2334.55 1285.41 2408.55 1100.01 2373.63 1055.95Z" fill="#FF9900"/>
</g>
<defs>
<clipPath id="clip0_1_2">
<rect width="2500" height="1495" fill="white"/>
</clipPath>
</defs>
</svg>
