<svg width="30" height="30" viewBox="0 0 892 534" fill="none" xmlns="http://www.w3.org/2000/svg">
<path d="M251.337 193.697C251.337 204.672 252.523 213.571 254.6 220.096C256.973 226.622 259.939 233.741 264.092 241.453C265.575 243.826 266.168 246.2 266.168 248.276C266.168 251.242 264.389 254.208 260.532 257.175L241.845 269.633C239.175 271.413 236.506 272.303 234.133 272.303C231.166 272.303 228.2 270.819 225.234 268.15C221.081 263.7 217.522 258.954 214.555 254.208C211.589 249.166 208.623 243.53 205.36 236.707C182.223 263.997 153.154 277.642 118.152 277.642C93.2354 277.642 73.3614 270.523 58.8268 256.285C44.2921 242.047 36.8765 223.063 36.8765 199.333C36.8765 174.119 45.7752 153.652 63.8694 138.228C81.9636 122.803 105.99 115.091 136.543 115.091C146.628 115.091 157.01 115.981 167.985 117.464C178.96 118.947 190.232 121.32 202.097 123.99V102.336C202.097 79.7924 197.351 64.0712 188.156 54.8758C178.664 45.6804 162.646 41.231 139.806 41.231C129.424 41.231 118.745 42.4175 107.77 45.0871C96.7949 47.7568 86.1164 51.0197 75.7345 55.1724C70.9884 57.2488 67.4289 58.4353 65.3526 59.0286C63.2762 59.6218 61.793 59.9184 60.6065 59.9184C56.4538 59.9184 54.3774 56.9522 54.3774 50.723V36.1884C54.3774 31.4423 54.9706 27.8828 56.4538 25.8065C57.9369 23.7301 60.6065 21.6537 64.7593 19.5773C75.1412 14.238 87.5995 9.78865 102.134 6.22914C116.669 2.37301 132.093 0.593252 148.408 0.593252C183.706 0.593252 209.513 8.60215 226.124 24.6199C242.438 40.6377 250.744 64.9611 250.744 97.5899V193.697H251.337ZM130.907 238.784C140.696 238.784 150.781 237.004 161.459 233.445C172.138 229.885 181.63 223.359 189.639 214.461C194.385 208.825 197.944 202.595 199.724 195.476C201.504 188.357 202.69 179.755 202.69 169.67V157.212C194.088 155.135 184.893 153.356 175.401 152.169C165.909 150.983 156.713 150.389 147.518 150.389C127.644 150.389 113.109 154.245 103.321 162.254C93.532 170.263 88.786 181.535 88.786 196.366C88.786 210.308 92.3455 220.69 99.7611 227.809C106.88 235.224 117.262 238.784 130.907 238.784ZM369.097 270.819C363.758 270.819 360.199 269.93 357.826 267.853C355.453 266.073 353.376 261.921 351.597 256.285L281.889 26.993C280.11 21.0604 279.22 17.2043 279.22 15.1279C279.22 10.3819 281.593 7.71227 286.339 7.71227H315.408C321.044 7.71227 324.9 8.60215 326.977 10.6785C329.35 12.4583 331.129 16.6111 332.909 22.2469L382.742 218.613L429.016 22.2469C430.499 16.3144 432.279 12.4583 434.652 10.6785C437.025 8.89878 441.178 7.71227 446.517 7.71227H470.247C475.883 7.71227 479.739 8.60215 482.112 10.6785C484.485 12.4583 486.561 16.6111 487.748 22.2469L534.615 220.986L585.931 22.2469C587.711 16.3144 589.787 12.4583 591.863 10.6785C594.236 8.89878 598.093 7.71227 603.432 7.71227H631.018C635.764 7.71227 638.434 10.0853 638.434 15.1279C638.434 16.6111 638.137 18.0942 637.84 19.8739C637.544 21.6537 636.951 24.0267 635.764 27.2896L564.277 256.581C562.497 262.514 560.421 266.37 558.048 268.15C555.675 269.93 551.819 271.116 546.776 271.116H521.266C515.631 271.116 511.774 270.226 509.401 268.15C507.028 266.073 504.952 262.217 503.766 256.285L457.789 64.9611L412.108 255.988C410.625 261.921 408.845 265.777 406.472 267.853C404.099 269.93 399.947 270.819 394.607 270.819H369.097ZM750.262 278.828C734.837 278.828 719.413 277.049 704.581 273.489C689.75 269.93 678.182 266.073 670.469 261.624C665.723 258.954 662.46 255.988 661.274 253.319C660.087 250.649 659.494 247.683 659.494 245.013V229.885C659.494 223.656 661.867 220.69 666.317 220.69C668.096 220.69 669.876 220.986 671.656 221.58C673.436 222.173 676.105 223.359 679.071 224.546C689.157 228.995 700.132 232.555 711.7 234.928C723.565 237.301 735.134 238.487 746.999 238.487C765.686 238.487 780.221 235.224 790.306 228.699C800.391 222.173 805.731 212.681 805.731 200.519C805.731 192.214 803.061 185.391 797.722 179.755C792.383 174.119 782.297 169.077 767.763 164.331L724.752 150.983C703.098 144.16 687.08 134.075 677.292 120.727C667.503 107.675 662.46 93.1405 662.46 77.716C662.46 65.2577 665.13 54.2825 670.469 44.7905C675.809 35.2985 682.928 26.993 691.826 20.4672C700.725 13.6448 710.81 8.60215 722.675 5.04264C734.541 1.48313 746.999 0 760.05 0C766.576 0 773.398 0.296626 779.924 1.1865C786.747 2.07638 792.976 3.26288 799.205 4.44939C805.137 5.93252 810.773 7.41565 816.113 9.1954C821.452 10.9752 825.605 12.7549 828.571 14.5347C832.724 16.9077 835.69 19.2807 837.47 21.9503C839.249 24.3233 840.139 27.5862 840.139 31.739V45.6804C840.139 51.9095 837.766 55.1724 833.317 55.1724C830.944 55.1724 827.088 53.9859 822.045 51.6129C805.137 43.9006 786.153 40.0445 765.093 40.0445C748.185 40.0445 734.837 42.7141 725.642 48.35C716.446 53.9859 711.7 62.5881 711.7 74.7497C711.7 83.0553 714.667 90.1743 720.599 95.8102C726.532 101.446 737.507 107.082 753.228 112.125L795.349 125.473C816.706 132.295 832.13 141.787 841.326 153.949C850.521 166.111 854.971 180.052 854.971 195.476C854.971 208.231 852.301 219.8 847.258 229.885C841.919 239.97 834.8 248.869 825.605 255.988C816.409 263.404 805.434 268.743 792.679 272.599C779.331 276.752 765.39 278.828 750.262 278.828Z" fill="white"/>
<path fill-rule="evenodd" clip-rule="evenodd" d="M806.324 422.989C708.734 495.069 566.947 533.333 445.034 533.333C274.177 533.333 120.228 470.152 3.95111 365.146C-5.24429 356.841 3.06123 345.569 14.0364 352.095C139.806 425.065 294.941 469.262 455.416 469.262C563.684 469.262 682.631 446.719 792.086 400.445C808.401 393.029 822.342 411.124 806.324 422.989Z" fill="white"/>
<path fill-rule="evenodd" clip-rule="evenodd" d="M846.962 376.715C834.504 360.697 764.5 369.003 732.761 372.859C723.269 374.045 721.786 365.74 730.388 359.511C786.154 320.356 877.811 331.628 888.49 344.679C899.168 358.027 885.523 449.685 833.317 493.585C825.308 500.408 817.596 496.848 821.155 487.95C833.021 458.584 859.42 392.436 846.962 376.715Z" fill="white"/>
</svg>
