<svg width="25" height="25" viewBox="0 0 512 512" fill="none" xmlns="http://www.w3.org/2000/svg">
<path d="M177.863 36.1315H315.156L172.633 458.418C171.162 462.754 168.371 466.521 164.652 469.191C160.932 471.861 156.471 473.3 151.892 473.307H45.0417C33.0516 473.307 23.1842 463.443 23.1842 451.453C23.1842 449.077 23.5723 446.718 24.3316 444.467L157.12 51.0237C158.589 46.6857 161.38 42.9164 165.1 40.2445C168.82 37.5726 173.283 36.132 177.863 36.1248V36.1315Z" fill="url(#paint0_linear_75_19)"/>
<path d="M377.371 319.374H159.644C154.117 319.374 149.568 323.923 149.568 329.451C149.568 332.245 150.732 334.917 152.774 336.821L292.675 467.398C296.747 471.197 302.11 473.31 307.679 473.308H430.96L377.371 319.374Z" fill="#0078D4"/>
<path d="M177.863 36.1314C173.234 36.1202 168.721 37.5861 164.982 40.316C161.243 43.0459 158.472 46.8974 157.072 51.3104L24.497 444.106C23.6475 446.472 23.2136 448.966 23.2146 451.48C23.2146 463.453 33.0685 473.307 45.045 473.307H154.71C158.791 472.575 162.605 470.774 165.764 468.088C168.922 465.402 171.312 461.927 172.69 458.016L199.127 380.1L293.566 468.184C297.523 471.456 302.486 473.265 307.621 473.307H430.44L376.574 319.373L219.543 319.41L315.652 36.1314H177.863Z" fill="url(#paint1_linear_75_19)"/>
<path d="M353.222 51.0002C351.753 46.6702 348.966 42.9085 345.251 40.2421C341.537 37.5758 337.081 36.1385 332.509 36.1316H179.497C184.069 36.139 188.524 37.5765 192.239 40.2428C195.953 42.909 198.74 46.6705 200.21 51.0002L333.001 444.461C333.761 446.715 334.149 449.074 334.149 451.453C334.149 463.446 324.281 473.314 312.288 473.314H465.307C477.297 473.31 487.161 463.443 487.161 451.453C487.161 449.074 486.773 446.715 486.013 444.461L353.222 51.0002Z" fill="url(#paint2_linear_75_19)"/>
<defs>
<linearGradient id="paint0_linear_75_19" x1="227.903" y1="68.5279" x2="85.3177" y2="489.754" gradientUnits="userSpaceOnUse">
<stop stop-color="#114A8B"/>
<stop offset="1" stop-color="#0669BC"/>
</linearGradient>
<linearGradient id="paint1_linear_75_19" x1="272.442" y1="264.831" x2="239.461" y2="275.983" gradientUnits="userSpaceOnUse">
<stop stop-opacity="0.3"/>
<stop offset="0.07" stop-opacity="0.2"/>
<stop offset="0.32" stop-opacity="0.1"/>
<stop offset="0.62" stop-opacity="0.05"/>
<stop offset="1" stop-opacity="0"/>
</linearGradient>
<linearGradient id="paint2_linear_75_19" x1="254.3" y1="56.2411" x2="410.817" y2="473.222" gradientUnits="userSpaceOnUse">
<stop stop-color="#3CCBF4"/>
<stop offset="1" stop-color="#2892DF"/>
</linearGradient>
</defs>
</svg>
