<svg width="25" height="25" viewBox="0 0 38 32" fill="none" xmlns="http://www.w3.org/2000/svg">
<g clip-path="url(#clip0_27_18977)">
<path d="M33.9962 11.3269L33.9962 11.3269C34.6135 13.4389 35.6808 15.0185 37.5 15.4078V16.5922C35.6808 16.9815 34.6135 18.5611 33.9962 20.6731L33.9962 20.6731C33.3286 22.9583 33.2418 25.7287 33.3114 27.8345C33.3752 29.7873 31.9397 31.5 30.1105 31.5H7.89242C6.06325 31.5 4.62772 29.7873 4.6916 27.8345C4.76115 25.7286 4.6736 22.9583 4.00686 20.6733L4.00679 20.6731C3.38932 18.5606 2.3193 16.9814 0.5 16.5922V15.4078C2.3193 15.0186 3.38932 13.4394 4.00679 11.3269L4.00686 11.3267C4.6736 9.0417 4.76115 6.27142 4.6916 4.16546C4.62772 2.21272 6.06325 0.5 7.89242 0.5H30.1105C31.9397 0.5 33.3752 2.21272 33.3114 4.16546C33.2418 6.27128 33.3286 9.04169 33.9962 11.3269Z" fill="url(#paint0_linear_27_18977)" stroke="white"/>
<path fill-rule="evenodd" clip-rule="evenodd" d="M25.4496 19.6941C25.4496 22.6902 23.3344 24.5067 19.8238 24.5067H13.2035V7.48706H19.7897C22.7169 7.48706 24.6377 9.16157 24.6377 11.7326C24.6377 13.5373 23.3463 15.1537 21.6993 15.4361V15.531C23.9407 15.7906 25.4496 17.4298 25.4496 19.6941ZM15.7648 22.3482V16.7459H19.1492C21.5732 16.7459 22.8312 17.6894 22.8312 19.5294C22.8312 21.3694 21.6081 22.3482 19.2984 22.3482H15.7648ZM15.7648 9.64549H19.1722C21.0247 9.64549 22.0764 10.5184 22.0764 12.0988C22.0764 13.7851 20.8532 14.7286 18.6349 14.7286H15.7648V9.64549Z" fill="white"/>
</g>
<defs>
<linearGradient id="paint0_linear_27_18977" x1="5.64063" y1="0.784313" x2="40.2143" y2="26.7674" gradientUnits="userSpaceOnUse">
<stop offset="1" stop-color="#272727"/>
</linearGradient>
<clipPath id="clip0_27_18977">
<rect width="38" height="32" fill="white"/>
</clipPath>
</defs>
</svg>
