<svg width="25" height="25" viewBox="0 0 38 38" fill="none" xmlns="http://www.w3.org/2000/svg">
<path d="M17.404 0.507005C18.354 -0.0309321 19.5653 -0.0333071 20.4915 0.507005L34.675 8.50244C35.5621 9.00119 36.1558 9.99038 36.1475 11.0128V27.0441C36.1534 28.1093 35.5015 29.1198 34.5658 29.6091L20.4583 37.5677C19.9757 37.8343 19.4306 37.9669 18.8795 37.9517C18.3284 37.9364 17.7915 37.7739 17.3244 37.481L13.091 35.0348C12.8024 34.8626 12.4783 34.726 12.274 34.4469C12.4545 34.2047 12.7751 34.1738 13.0364 34.0669C13.6254 33.8793 14.1645 33.5919 14.706 33.2879C14.8426 33.1929 15.01 33.2286 15.1406 33.3141L18.7506 35.4017C19.0083 35.5501 19.2696 35.3542 19.4904 35.2295L33.3426 27.4122C33.5136 27.3291 33.6086 27.1486 33.5944 26.9609V11.0841C33.6134 10.8703 33.4911 10.6756 33.2975 10.5889L19.2256 2.66469C19.1445 2.6086 19.0483 2.57846 18.9497 2.57825C18.8511 2.57803 18.7548 2.60777 18.6734 2.66351L4.62175 10.6043C4.43175 10.691 4.30112 10.8834 4.32487 11.0971V26.974C4.30825 27.1616 4.408 27.3386 4.58019 27.4193L8.33506 29.539C9.04044 29.919 9.90613 30.1328 10.6827 29.8537C11.0226 29.7256 11.3152 29.4967 11.5213 29.1976C11.7274 28.8986 11.8371 28.5437 11.8358 28.1805L11.8394 12.3986C11.8228 12.1647 12.0436 11.9711 12.2704 11.9949H14.0754C14.3129 11.9889 14.4994 12.2407 14.4673 12.4758L14.4638 28.3574C14.4649 29.7682 13.8854 31.3024 12.5804 31.9948C10.9725 32.826 8.98462 32.6514 7.39575 31.8523L3.35825 29.6198C2.40825 29.1448 1.77056 28.1188 1.7765 27.0548V11.0235C1.78045 10.5025 1.92369 9.99196 2.19137 9.54492C2.45906 9.09788 2.84144 8.73057 3.29887 8.48107L17.404 0.507005ZM21.4937 11.6196C23.5446 11.5009 25.7402 11.5413 27.5856 12.5518C29.0142 13.3261 29.8062 14.9506 29.8324 16.5394C29.792 16.7532 29.5688 16.8719 29.3645 16.8565C28.7708 16.8553 28.1746 16.8648 27.5785 16.8529C27.3256 16.8624 27.1795 16.6297 27.1474 16.4064C26.9764 15.6464 26.562 14.8948 25.8471 14.5278C24.7499 13.978 23.4769 14.0053 22.2799 14.0172C21.4059 14.0647 20.4666 14.1395 19.7267 14.6525C19.1567 15.042 18.9858 15.84 19.1888 16.4599C19.3788 16.9147 19.9049 17.0608 20.3336 17.1961C22.8059 17.8421 25.4244 17.7899 27.8504 18.6294C28.8539 18.9762 29.8359 19.6507 30.1803 20.7016C30.6292 22.11 30.4332 23.7939 29.4322 24.9244C28.6199 25.8554 27.4372 26.3494 26.2556 26.6368C24.6846 26.9871 23.0553 26.9954 21.4605 26.8386C19.9607 26.6676 18.4003 26.2734 17.2425 25.2521C16.2521 24.3924 15.77 23.0529 15.8175 21.7609C15.8294 21.5424 16.0467 21.3904 16.2569 21.4082H18.0381C18.278 21.3916 18.4538 21.5982 18.4656 21.8238C18.5761 22.5363 18.848 23.3082 19.4797 23.7238C20.6981 24.5099 22.2264 24.4553 23.6206 24.4779C24.776 24.4268 26.0727 24.4114 27.0168 23.6466C27.5156 23.2108 27.6616 22.4829 27.5274 21.8559C27.3814 21.3263 26.8149 21.0804 26.3399 20.9059C23.8996 20.134 21.2515 20.4143 18.8349 19.5403C17.8541 19.1935 16.9052 18.538 16.5288 17.5298C16.0028 16.1048 16.2438 14.339 17.3518 13.2465C18.4205 12.1599 19.988 11.7408 21.4724 11.5911L21.4937 11.6196Z" fill="white"/>
</svg>
