<svg width="20" height="25" viewBox="0 0 20 25" fill="none" xmlns="http://www.w3.org/2000/svg">
<path d="M5.6407 5.37109C8.75598 5.37109 11.2812 8.54966 11.2812 12.4704C11.2812 16.391 8.75578 19.5694 5.6407 19.5694C2.52561 19.5694 0 16.391 0 12.4704C0 8.54966 2.52542 5.37109 5.6407 5.37109ZM14.6485 5.78695C16.2061 5.78695 17.4688 8.77891 17.4688 12.4704H17.469C17.469 16.1608 16.2063 19.1538 14.6487 19.1538C13.091 19.1538 11.8283 16.1608 11.8283 12.4704C11.8283 8.77987 13.0908 5.78695 14.6485 5.78695ZM19.0081 6.48308C19.5558 6.48308 20 9.16363 20 12.4704C20 15.7761 19.556 18.4576 19.0081 18.4576C18.4602 18.4576 18.0163 15.7768 18.0163 12.4704C18.0163 9.16387 18.4604 6.48308 19.0081 6.48308Z" fill="white"/>
</svg>
