<svg width="40" height="40" viewBox="0 0 64 41" fill="none" xmlns="http://www.w3.org/2000/svg">
<path fill-rule="evenodd" clip-rule="evenodd" d="M9.60027 30.7795H11.0998V23.1681L13.4417 29.8043C13.707 30.602 14.0881 30.8974 14.826 30.8974C15.5639 30.8974 15.9222 30.6016 16.1963 29.8043L18.5266 23.1681V30.7795H20.0378V23.1681C20.0378 22.4294 19.8069 22.074 19.3224 21.8818C18.1804 21.4386 17.4189 21.8229 17.073 22.8127L14.7776 29.375L12.5627 22.8127C12.2281 21.8229 11.4551 21.4386 10.3017 21.8818C9.82857 22.074 9.59795 22.4291 9.59795 23.1681L9.59769 30.7795H9.60027ZM21.286 24.5869H22.7972V28.7697C22.7858 29.0059 22.8549 29.5383 23.6763 29.5525C24.1029 29.5674 26.9293 29.5525 26.952 29.5525V24.5571H28.4632V31.4003C28.4632 33.0851 26.8344 33.4541 26.0753 33.4694H21.3232V32.1841H26.0875C27.0565 32.0509 26.9412 31.4304 26.9412 31.2234V30.7205H23.7456C22.2574 30.7056 21.2997 29.8632 21.2886 28.9026V24.5862L21.286 24.5869ZM53.7009 19.7389C52.7784 19.7091 52.0628 19.8277 51.4629 20.153C51.2902 20.2424 51.0131 20.2424 50.9903 20.5227C51.0826 20.6403 51.0937 20.8327 51.1747 20.9957C51.313 21.2915 51.5555 21.69 51.7745 21.8967C52.017 22.1336 52.2593 22.3698 52.5126 22.5768C52.9625 22.9313 53.47 23.1383 53.9083 23.4931C54.1621 23.7001 54.4158 23.9661 54.6697 24.1881C54.7989 24.3063 54.8773 24.4988 55.0389 24.5723V24.5276C54.9582 24.3951 54.9349 24.203 54.8545 24.0546C54.739 23.9072 54.6236 23.7737 54.5081 23.6262C54.1738 23.0499 53.7583 22.547 53.3084 22.1336C52.9392 21.8083 52.132 21.3651 51.9821 20.8185L51.9593 20.7887C52.2127 20.7588 52.5126 20.6406 52.7551 20.5518C53.1476 20.4193 53.5049 20.4485 53.9083 20.3156C54.0931 20.256 54.2775 20.1825 54.4623 20.1086V19.9761C54.2547 19.7101 54.1048 19.3553 53.8858 19.1042C53.2976 18.4539 52.6512 17.8182 51.9821 17.2862C51.6245 16.9907 51.163 16.7983 50.7824 16.5475C50.6436 16.4587 50.4132 16.4144 50.3326 16.2666C50.1244 15.942 50.0094 15.513 49.8594 15.1284C49.5251 14.3155 49.202 13.4141 48.9137 12.5568C48.7061 11.9804 48.5789 11.404 48.3255 10.872C47.1372 8.3594 45.845 6.83725 43.8609 5.34425C43.4343 5.03386 42.9268 4.90036 42.3872 4.73805L41.5221 4.67842C41.3373 4.57507 41.1529 4.29416 40.9913 4.16099C40.3338 3.62898 38.638 2.47619 38.1533 3.99867C37.8417 4.95933 38.6148 5.90508 38.8772 6.39303C39.0737 6.7329 39.3271 7.11717 39.4659 7.50143C39.5435 7.75253 39.5693 8.01886 39.6502 8.28486C39.8346 8.93513 40.0078 9.6596 40.2501 10.2658C40.3793 10.5762 40.5151 10.9018 40.6767 11.1824C40.769 11.3447 40.9306 11.4189 40.9649 11.6849C40.8034 11.9807 40.7922 12.4236 40.6999 12.7937C40.2845 14.4639 40.446 16.5329 41.0342 17.7593C41.2191 18.1286 41.6548 18.9419 42.2458 18.6312C42.7649 18.3652 42.6491 17.5228 42.7991 16.7837C42.834 16.6065 42.8107 16.4882 42.8797 16.3696V16.3994L43.3529 17.6261C43.7104 18.3502 44.3335 19.1042 44.8524 19.6071C45.1291 19.8731 45.3483 20.3315 45.6943 20.4938V20.4491H45.6715C45.6022 20.3166 45.4983 20.257 45.406 20.1536C45.1984 19.8876 44.9678 19.5623 44.8062 19.2668C44.3219 18.4394 43.8953 17.5228 43.5145 16.577C43.3296 16.1189 43.168 15.6163 43.0186 15.1582C42.9488 14.9807 42.9488 14.7143 42.8337 14.6262C42.6605 14.9508 42.4071 15.2324 42.2797 15.6313C42.0604 16.2666 42.0377 17.05 41.957 17.863C41.9104 17.8779 41.9311 17.863 41.9104 17.8928C41.5418 17.7748 41.4146 17.2866 41.2762 16.8731C40.9303 15.8237 40.8724 14.1389 41.1723 12.9268C41.253 12.6164 41.5994 11.6409 41.4611 11.3454C41.3913 11.0645 41.1612 10.9022 41.034 10.6802C40.884 10.3993 40.7229 10.0449 40.619 9.73446C40.3424 8.90631 40.204 7.99037 39.9039 7.16255C39.765 6.77829 39.523 6.37912 39.3268 6.02467C39.1076 5.6255 38.8658 5.34459 38.6926 4.87188C38.6349 4.70956 38.5543 4.44322 38.6466 4.26567C38.6693 4.14741 38.7159 4.10335 38.8076 4.07354C38.9576 3.91122 39.3847 4.11792 39.5347 4.20604C39.9613 4.42798 40.3188 4.63469 40.6764 4.94475C40.838 5.0925 41.0112 5.37341 41.2188 5.44761H41.4614C41.8306 5.55096 42.2455 5.47742 42.5912 5.60993C43.2027 5.86169 43.7562 6.23071 44.2526 6.63021C45.7636 7.85687 47.0097 9.60096 47.8516 11.6853C47.9899 12.0251 48.0475 12.3355 48.1747 12.6903C48.4173 13.4148 48.7172 14.1535 48.9589 14.8634C49.2014 15.558 49.4321 16.2679 49.778 16.8443C49.9512 17.1547 50.6431 17.317 50.9544 17.4797C51.1853 17.6122 51.5426 17.7314 51.7507 17.8938C52.1427 18.2042 52.5349 18.5589 52.9038 18.8988C53.0882 19.0757 53.6652 19.4454 53.6996 19.7402L53.7009 19.7389ZM41.9371 6.89522C41.7777 6.89341 41.6188 6.91825 41.4645 6.96909V6.99891H41.4872C41.5795 7.23543 41.7411 7.39808 41.8564 7.60511L42.1219 8.31468L42.1447 8.28486C42.3063 8.13712 42.3872 7.9006 42.3872 7.54615C42.3179 7.4428 42.3065 7.33911 42.2489 7.23576C42.1796 7.08801 42.0296 7.01381 41.9371 6.89588V6.89522Z" fill="white"/>
<path fill-rule="evenodd" clip-rule="evenodd" d="M29.6148 30.7795H33.9522C34.4597 30.7795 34.9445 30.647 35.3364 30.4101C35.9939 30.0258 36.3054 29.5091 36.3054 28.829V27.4102C36.3054 26.8636 35.9479 26.3459 35.233 25.9914C34.8638 25.8142 34.4023 25.7105 33.9524 25.7105H32.1297C31.5182 25.7105 31.2299 25.4737 31.149 24.9569C31.1376 24.8979 31.1376 24.8386 31.1376 24.7797V23.9074C31.1376 23.8627 31.1376 23.8041 31.149 23.7451C31.2297 23.346 31.3913 23.2423 31.9246 23.1687H36.3657V21.8824H32.1436C31.5322 21.8824 31.2092 21.9272 30.9207 22.0454C30.0323 22.3999 29.6401 22.9617 29.6401 23.9515V25.0755C29.6401 25.9467 30.4015 26.6864 31.6935 26.8636C31.8318 26.8785 31.9818 26.8785 32.1317 26.8785H33.6892C33.7469 26.8785 33.8043 26.8785 33.8503 26.8934C34.3234 26.9524 34.531 27.0558 34.6694 27.277C34.7617 27.3953 34.7849 27.499 34.7849 27.6322V28.7551C34.7849 28.8876 34.7156 29.0659 34.5773 29.2133C34.439 29.3607 34.2192 29.4644 33.931 29.4793C33.8733 29.4793 33.8392 29.4942 33.781 29.4942H29.6148V30.7795ZM45.695 28.5481C45.695 29.8632 46.4707 30.6019 48.0142 30.7503C48.1641 30.7652 48.3025 30.7795 48.4524 30.7795H52.3746V29.4942H48.418C47.5408 29.4942 47.2065 29.2133 47.2065 28.5335V21.8824H45.6922V28.5484L45.695 28.5481ZM37.2626 28.6067V24.0254C37.2626 22.8577 37.9084 22.1478 39.1662 21.9265C39.3046 21.9116 39.4429 21.8967 39.5696 21.8967H42.4301C42.5801 21.8967 42.7073 21.9116 42.8572 21.9265C44.1145 22.1478 44.7488 22.8573 44.7488 24.0254V28.6067C44.7488 29.5525 44.4837 30.0553 43.8604 30.3955L45.3367 32.1095H43.5951L42.3955 30.7205L41.1839 30.8093H39.5691C39.2731 30.8074 38.9786 30.7579 38.6923 30.6619C37.7357 30.3213 37.2626 29.6714 37.2626 28.6067ZM38.8888 28.504C38.8888 28.563 38.9147 28.6216 38.9237 28.6962C39.0044 29.2278 39.3963 29.5237 39.9962 29.5237H41.3577L40.112 28.0751H41.8536L42.9493 29.3464C43.1574 29.1984 43.2841 28.9913 43.3301 28.7253C43.3418 28.6664 43.3418 28.5928 43.3418 28.5332V24.1433C43.3418 24.0843 43.3418 24.0257 43.3301 23.9661C43.2495 23.4639 42.8575 23.1833 42.269 23.1833H39.9964C39.3273 23.1833 38.8891 23.5527 38.8891 24.1433L38.8888 28.504Z" fill="#7D7973"/>
</svg>
