<svg width="25" height="25" viewBox="0 0 38 30" fill="none" xmlns="http://www.w3.org/2000/svg">
<path d="M38 15.0034C38 12.7942 34.8475 10.7006 30.0143 9.40223C31.1296 5.07898 30.6339 1.63942 28.4497 0.538217C27.9462 0.27991 27.3575 0.157554 26.7146 0.157554V1.67341C27.0709 1.67341 27.3575 1.73459 27.5976 1.85015C28.651 2.38035 29.108 4.39923 28.7517 6.99589C28.6665 7.63486 28.5271 8.30782 28.3567 8.99437C26.8386 8.66809 25.181 8.41658 23.4382 8.25344C22.3926 6.99589 21.3082 5.8539 20.2161 4.85466C22.7411 2.79501 25.1113 1.66661 26.7224 1.66661V0.150757C24.5923 0.150757 21.8039 1.48308 18.9845 3.79425C16.1651 1.49667 13.3767 0.177947 11.2466 0.177947V1.6938C12.85 1.6938 15.2279 2.8154 17.753 4.86146C16.6686 5.8607 15.5842 6.99589 14.554 8.25344C12.8035 8.41658 11.1459 8.66809 9.6278 9.00117C9.44965 8.32142 9.31798 7.66205 9.22503 7.02988C8.86099 4.43322 9.31023 2.41434 10.3559 1.87734C10.5883 1.75498 10.8903 1.7006 11.2466 1.7006V0.184745C10.596 0.184745 10.0073 0.3071 9.49613 0.565408C7.31961 1.66661 6.83163 5.09938 7.95475 9.40902C3.13697 10.7142 0 12.801 0 15.0034C0 17.2126 3.15247 19.3063 7.98573 20.6046C6.87036 24.9278 7.36608 28.3674 9.55035 29.4686C10.0538 29.7269 10.6425 29.8493 11.2931 29.8493C13.4232 29.8493 16.2116 28.5169 19.031 26.2058C21.8504 28.5034 24.6388 29.8221 26.7689 29.8221C27.4195 29.8221 28.0082 29.6997 28.5194 29.4414C30.6959 28.3402 31.1839 24.9074 30.0607 20.5978C34.863 19.2995 38 17.2058 38 15.0034ZM27.9152 10.4694C27.6286 11.3463 27.2723 12.2504 26.8695 13.1545C26.552 12.6107 26.2189 12.0669 25.8549 11.5231C25.4986 10.9793 25.119 10.449 24.7395 9.93244C25.8394 10.0752 26.9005 10.2519 27.9152 10.4694ZM24.3677 17.7088C23.7636 18.6265 23.1439 19.4966 22.501 20.3055C21.3469 20.3939 20.1773 20.4415 19 20.4415C17.8304 20.4415 16.6608 20.3939 15.5145 20.3123C14.8716 19.5034 14.2442 18.6401 13.64 17.7292C13.0514 16.8388 12.5169 15.9347 12.0289 15.0238C12.5092 14.1129 13.0514 13.2021 13.6323 12.3116C14.2364 11.3939 14.8561 10.5238 15.499 9.71491C16.6531 9.62655 17.8227 9.57896 19 9.57896C20.1696 9.57896 21.3392 9.62655 22.4855 9.70812C23.1284 10.517 23.7558 11.3803 24.36 12.2912C24.9486 13.1817 25.4831 14.0857 25.9711 14.9966C25.4831 15.9075 24.9486 16.8184 24.3677 17.7088ZM26.8695 16.8252C27.2878 17.736 27.6441 18.6469 27.9384 19.5306C26.9238 19.7481 25.8549 19.9316 24.7472 20.0744C25.1268 19.551 25.5063 19.014 25.8626 18.4634C26.2189 17.9196 26.552 17.369 26.8695 16.8252ZM19.0155 24.0781C18.2952 23.4256 17.5748 22.6982 16.8622 21.9029C17.5593 21.9301 18.2719 21.9505 18.9923 21.9505C19.7203 21.9505 20.4407 21.9369 21.1455 21.9029C20.4484 22.6982 19.7281 23.4256 19.0155 24.0781ZM13.2528 20.0744C12.1529 19.9316 11.0917 19.7549 10.077 19.5374C10.3636 18.6605 10.7199 17.7564 11.1227 16.8523C11.4403 17.3962 11.7733 17.94 12.1374 18.4838C12.5014 19.0276 12.8732 19.5578 13.2528 20.0744ZM18.9768 5.92868C19.6971 6.58124 20.4174 7.30858 21.13 8.10389C20.4329 8.0767 19.7203 8.05631 19 8.05631C18.2719 8.05631 17.5516 8.06991 16.8467 8.10389C17.5438 7.30858 18.2642 6.58124 18.9768 5.92868ZM13.245 9.93244C12.8655 10.4558 12.4859 10.9929 12.1296 11.5435C11.7733 12.0873 11.4403 12.6311 11.1227 13.1749C10.7044 12.264 10.3481 11.3531 10.0538 10.4694C11.0685 10.2587 12.1374 10.0752 13.245 9.93244ZM6.23522 18.443C3.49327 17.4165 1.71953 16.0706 1.71953 15.0034C1.71953 13.9362 3.49327 12.5835 6.23522 11.5638C6.90135 11.3123 7.62943 11.088 8.38076 10.8773C8.82226 12.2096 9.40318 13.5963 10.1235 15.017C9.41092 16.4309 8.83775 17.8108 8.404 19.1363C7.63718 18.9256 6.90909 18.6945 6.23522 18.443ZM10.4024 28.1567C9.34896 27.6265 8.89197 25.6076 9.24827 23.0109C9.33347 22.372 9.47289 21.699 9.6433 21.0124C11.1614 21.3387 12.819 21.5902 14.5618 21.7534C15.6074 23.0109 16.6918 24.1529 17.7839 25.1522C15.2589 27.2118 12.8887 28.3402 11.2776 28.3402C10.9291 28.3334 10.6347 28.2722 10.4024 28.1567ZM28.775 22.9769C29.139 25.5736 28.6898 27.5925 27.6441 28.1295C27.4117 28.2518 27.1097 28.3062 26.7534 28.3062C25.15 28.3062 22.7721 27.1846 20.247 25.1386C21.3314 24.1393 22.4158 23.0041 23.446 21.7466C25.1965 21.5834 26.8541 21.3319 28.3722 20.9989C28.5503 21.6854 28.6898 22.3448 28.775 22.9769ZM31.757 18.443C31.0909 18.6945 30.3628 18.9188 29.6115 19.1295C29.17 17.7972 28.5891 16.4105 27.8687 14.9898C28.5813 13.5759 29.1545 12.196 29.5883 10.8705C30.3551 11.0812 31.0832 11.3123 31.7648 11.5638C34.5067 12.5903 36.2805 13.9362 36.2805 15.0034C36.2727 16.0706 34.499 17.4233 31.757 18.443Z" fill="white"/>
<path d="M18.9923 18.1099C20.9472 18.1099 22.532 16.7191 22.532 15.0035C22.532 13.2878 20.9472 11.897 18.9923 11.897C17.0373 11.897 15.4525 13.2878 15.4525 15.0035C15.4525 16.7191 17.0373 18.1099 18.9923 18.1099Z" fill="white"/>
</svg>
